<?xml version="1.0" standalone="no"?>
<!DOCTYPE svg PUBLIC "-//W3C//DTD SVG 20010904//EN"
 "http://www.w3.org/TR/2001/REC-SVG-20010904/DTD/svg10.dtd">
<svg version="1.0" xmlns="http://www.w3.org/2000/svg"
 width="577.000000pt" height="531.000000pt" viewBox="0 0 577.000000 531.000000"
 preserveAspectRatio="xMidYMid meet">

<g transform="translate(0.000000,531.000000) scale(0.100000,-0.100000)"
fill="#000000" stroke="none">
<path d="M4310 1507 c-13 -7 -29 -26 -34 -42 -4 -17 -12 -38 -17 -47 -6 -11
-5 -18 1 -18 6 0 10 -46 10 -120 0 -100 3 -120 15 -120 13 0 15 20 15 120 l0
120 26 0 c14 0 23 4 19 10 -3 6 -15 10 -26 10 -14 0 -19 7 -19 28 0 32 16 52
43 52 10 0 15 5 12 10 -8 13 -15 12 -45 -3z"/>
<path d="M3064 1490 c-40 -16 -54 -49 -54 -130 0 -41 6 -86 13 -100 18 -36 62
-55 105 -44 55 14 49 29 -10 25 -69 -4 -78 9 -78 114 0 105 9 118 78 114 56
-4 68 6 26 21 -30 12 -51 12 -80 0z"/>
<path d="M3693 1443 c-4 -10 -14 -23 -22 -30 -14 -11 -14 -12 0 -13 13 0 17
-15 21 -75 5 -69 18 -105 40 -105 5 0 4 9 -2 19 -5 11 -10 51 -10 90 0 64 2
70 23 74 l22 4 -22 8 c-13 4 -23 13 -23 21 0 21 -20 27 -27 7z"/>
<path d="M3252 1397 c-17 -18 -22 -36 -22 -81 0 -48 4 -61 26 -83 21 -21 32
-24 61 -20 60 10 64 27 7 27 -55 0 -74 12 -74 47 0 20 5 22 63 25 58 3 62 5
65 29 8 66 -80 105 -126 56z m96 -34 l3 -33 -50 0 c-54 0 -62 10 -40 51 8 16
19 19 47 17 34 -3 37 -6 40 -35z"/>
<path d="M3450 1318 c0 -59 4 -98 10 -98 6 0 10 33 10 80 0 88 12 105 68 98
27 -3 27 -4 30 -85 2 -57 7 -85 18 -94 11 -9 18 -9 26 -1 9 9 9 12 0 12 -8 0
-12 23 -12 73 0 102 -13 118 -90 114 l-60 -2 0 -97z"/>
<path d="M3831 1394 c-15 -19 -21 -41 -21 -79 0 -71 23 -100 79 -100 22 0 46
6 53 13 9 9 1 12 -40 12 -47 0 -53 3 -62 26 -16 41 -13 44 55 44 l65 0 0 33
c0 72 -86 106 -129 51z m93 -16 c27 -38 20 -48 -34 -48 -46 0 -50 2 -50 23 0
48 56 65 84 25z"/>
<path d="M4087 1409 c-9 -6 -26 -7 -37 -4 -19 6 -20 1 -20 -90 0 -73 3 -96 13
-93 8 3 13 31 15 80 3 75 3 77 33 87 17 6 28 15 24 21 -7 12 -6 12 -28 -1z"/>
<path d="M4425 1395 c-44 -43 -30 -150 22 -174 37 -17 52 -14 84 18 24 25 29
37 29 81 0 62 -30 100 -80 100 -19 0 -40 -9 -55 -25z m93 -7 c7 -7 12 -39 12
-75 0 -59 -2 -64 -26 -74 -20 -7 -32 -6 -50 6 -21 13 -24 24 -24 73 0 64 11
82 50 82 14 0 31 -5 38 -12z"/>
<path d="M4637 1413 c-4 -3 -7 -49 -7 -100 0 -71 3 -94 13 -91 7 3 13 30 15
73 3 74 13 95 43 95 11 0 19 7 19 15 0 18 -2 18 -35 3 -21 -9 -28 -9 -34 0 -4
7 -10 9 -14 5z"/>
<path d="M3949 1055 c-25 -14 -49 -59 -49 -93 0 -9 -7 -24 -16 -34 -16 -16
-16 -18 0 -24 14 -5 16 -26 16 -144 0 -151 3 -170 30 -170 27 0 30 19 30 171
l0 139 31 0 c24 0 30 4 27 18 -2 10 -14 18 -31 20 -26 3 -28 6 -25 40 3 34 6
37 36 40 23 2 32 8 32 22 0 31 -38 38 -81 15z"/>
<path d="M4941 1057 c-16 -16 -15 -359 1 -375 17 -17 68 -15 68 2 0 8 -7 16
-15 20 -13 4 -15 34 -15 180 0 138 -3 175 -14 179 -7 3 -19 0 -25 -6z"/>
<path d="M3755 1043 c-18 -18 -16 -32 8 -47 21 -13 51 13 42 36 -10 24 -32 29
-50 11z"/>
<path d="M4094 1046 c-15 -12 -17 -18 -8 -33 16 -25 41 -28 53 -5 8 15 6 23
-8 36 -15 14 -20 14 -37 2z"/>
<path d="M4484 1046 c-20 -15 -14 -43 12 -53 20 -8 47 19 39 39 -9 23 -30 29
-51 14z"/>
<path d="M3121 1031 c-6 -4 -9 -15 -6 -23 4 -9 -21 -83 -54 -165 -34 -81 -61
-154 -61 -161 0 -27 45 -7 59 26 14 32 15 32 83 32 l68 0 14 -35 c14 -33 47
-48 59 -27 4 6 -24 88 -99 284 -25 66 -40 83 -63 69z m53 -180 c9 -28 16 -55
16 -60 0 -6 -20 -11 -45 -11 -38 0 -45 3 -45 20 0 31 31 100 45 100 7 0 20
-22 29 -49z"/>
<path d="M3582 978 c-6 -6 -12 -16 -12 -21 0 -5 -10 -17 -22 -28 l-23 -19 21
-6 c20 -5 22 -14 26 -94 4 -96 23 -140 59 -140 17 0 19 4 13 18 -5 9 -10 61
-12 115 l-3 97 26 0 c20 0 26 4 23 18 -2 9 -13 18 -25 20 -13 2 -23 12 -25 25
-3 25 -28 33 -46 15z"/>
<path d="M3364 927 c-2 -7 -3 -67 -2 -133 3 -111 4 -119 23 -119 18 0 20 8 23
89 2 50 7 95 13 102 5 6 23 14 39 18 20 4 30 11 30 24 0 29 -9 32 -47 14 -33
-15 -35 -15 -44 1 -12 20 -28 22 -35 4z"/>
<path d="M3755 928 c-3 -8 -4 -68 -3 -134 3 -111 4 -119 23 -119 19 0 20 7 20
130 0 116 -2 130 -18 133 -9 2 -19 -3 -22 -10z"/>
<path d="M4094 927 c-2 -7 -3 -67 -2 -133 3 -111 4 -119 23 -119 19 0 20 8 23
124 2 93 -1 126 -10 133 -19 11 -28 10 -34 -5z"/>
<path d="M4271 926 c-36 -20 -50 -54 -51 -119 0 -94 34 -137 110 -137 52 0 75
12 67 33 -4 11 -17 13 -54 10 -45 -5 -50 -3 -61 21 -17 38 -15 117 4 144 13
19 24 23 60 21 51 -3 67 7 40 27 -25 17 -83 18 -115 0z"/>
<path d="M4485 928 c-3 -8 -4 -68 -3 -134 3 -111 4 -119 23 -119 19 0 20 7 20
130 0 116 -2 130 -18 133 -9 2 -19 -3 -22 -10z"/>
<path d="M4660 927 c-54 -27 -68 -181 -20 -232 26 -28 71 -33 115 -13 19 9 28
9 37 0 17 -17 68 -15 68 2 0 8 -7 16 -15 19 -11 5 -15 31 -17 118 l-3 112 -70
3 c-43 2 -80 -1 -95 -9z m104 -33 c13 -5 16 -22 16 -85 0 -67 -3 -80 -19 -89
-26 -14 -64 -13 -79 2 -16 16 -16 150 0 166 13 13 56 16 82 6z"/>
<path d="M3957 484 c-11 -12 -8 -343 3 -365 7 -12 21 -19 40 -19 35 0 49 19
27 35 -14 10 -17 38 -19 181 -3 161 -4 169 -23 172 -12 2 -24 0 -28 -4z"/>
<path d="M4107 484 c-11 -11 -8 -329 3 -358 7 -20 17 -26 39 -26 36 0 50 18
28 35 -14 10 -17 38 -19 181 -3 161 -4 169 -23 172 -12 2 -24 0 -28 -4z"/>
<path d="M4267 479 c-37 -21 -2 -68 35 -48 10 5 18 16 18 24 0 21 -32 35 -53
24z"/>
<path d="M3026 445 c-3 -9 -6 -85 -6 -170 0 -123 3 -155 15 -165 8 -7 22 -10
30 -6 13 5 15 30 13 178 -3 168 -4 173 -24 176 -13 2 -24 -4 -28 -13z"/>
<path d="M3510 396 c0 -18 -6 -25 -22 -28 -13 -2 -23 -10 -23 -18 0 -8 10 -16
23 -18 21 -3 22 -8 22 -97 0 -75 3 -97 18 -116 26 -31 56 -20 42 16 -6 15 -10
64 -10 110 0 79 1 84 23 87 28 4 29 32 0 36 -14 2 -23 11 -25 25 -2 14 -11 23
-25 25 -19 3 -23 -1 -23 -22z"/>
<path d="M3272 361 c-36 -13 -44 -13 -52 -2 -4 8 -15 11 -24 8 -14 -6 -16 -24
-14 -134 3 -120 4 -128 23 -128 18 0 20 8 23 95 2 82 5 97 23 113 25 20 60 22
77 5 8 -8 12 -46 12 -103 0 -99 7 -115 52 -115 21 0 28 5 28 20 0 11 -4 20 -9
20 -4 0 -11 41 -13 91 -5 75 -9 94 -28 114 -30 32 -48 35 -98 16z"/>
<path d="M3743 368 c-52 -13 -73 -54 -73 -138 0 -66 2 -74 29 -101 32 -31 84
-39 136 -19 46 17 24 35 -38 32 -47 -3 -57 -1 -66 16 -6 12 -11 30 -11 41 0
19 6 21 69 21 80 0 95 11 86 63 -7 37 -47 81 -80 89 -11 2 -34 1 -52 -4z m77
-69 c17 -40 4 -51 -51 -47 -37 3 -45 7 -47 26 -5 33 15 52 53 52 27 0 35 -5
45 -31z"/>
<path d="M4453 365 c-17 -7 -39 -27 -47 -44 -20 -38 -20 -113 -1 -151 21 -42
49 -53 106 -46 44 6 49 5 49 -13 0 -37 -28 -53 -88 -49 -36 2 -57 -1 -59 -9
-7 -21 38 -35 95 -31 45 4 60 10 79 32 23 27 23 33 21 169 l-3 142 -40 0 c-22
0 -49 4 -60 7 -11 4 -34 1 -52 -7z m91 -41 c12 -5 16 -21 16 -70 0 -57 -3 -65
-25 -80 -34 -22 -73 -11 -86 24 -12 32 -6 96 11 117 13 15 56 20 84 9z"/>
<path d="M4780 373 c-63 -18 -90 -59 -90 -136 0 -89 38 -139 104 -139 43 0 86
19 86 37 0 12 -9 14 -53 9 -58 -7 -70 0 -82 49 l-7 27 65 0 c84 0 97 5 97 42
0 65 -66 126 -120 111z m62 -67 c18 -40 5 -56 -47 -56 -51 0 -61 12 -46 53 9
22 17 27 46 27 28 0 38 -5 47 -24z"/>
<path d="M5072 361 c-36 -13 -44 -13 -52 -2 -4 8 -15 11 -24 8 -14 -6 -16 -24
-14 -134 3 -120 4 -128 23 -128 18 0 20 8 23 95 2 82 5 97 23 113 25 20 60 22
77 5 8 -8 12 -46 12 -103 0 -99 7 -115 52 -115 30 0 40 26 13 36 -12 5 -15 26
-15 98 0 83 -2 95 -22 113 -34 30 -48 32 -96 14z"/>
<path d="M5354 368 c-48 -12 -67 -41 -72 -108 -6 -75 2 -106 35 -136 30 -27
97 -33 128 -11 28 21 10 35 -37 30 -65 -6 -73 4 -73 92 0 88 8 98 73 92 32 -4
45 -1 49 10 3 7 3 16 0 19 -12 13 -74 20 -103 12z"/>
<path d="M5594 366 c-50 -22 -64 -51 -64 -134 0 -68 2 -76 29 -103 33 -32 88
-39 136 -17 41 18 24 33 -34 30 -61 -4 -81 8 -81 49 l0 29 69 0 c87 0 101 13
80 72 -23 66 -81 97 -135 74z m74 -48 c7 -7 12 -24 12 -39 0 -25 -2 -27 -50
-27 -48 0 -50 2 -50 27 0 34 17 51 50 51 14 0 31 -5 38 -12z"/>
<path d="M4265 358 c-3 -8 -4 -68 -3 -134 3 -111 4 -119 23 -119 19 0 20 7 20
130 0 116 -2 130 -18 133 -9 2 -19 -3 -22 -10z"/>
</g>
</svg>
