<?xml version="1.0" encoding="utf-8"?>
<!-- Generator: Adobe Illustrator 25.4.6, SVG Export Plug-In . SVG Version: 6.00 Build 0)  -->
<svg version="1.1" id="Layer_1" xmlns="http://www.w3.org/2000/svg" xmlns:xlink="http://www.w3.org/1999/xlink" x="0px" y="0px"
	 viewBox="0 0 365.59 129" style="enable-background:new 0 0 365.59 129;" xml:space="preserve">
<style type="text/css">
	.st0{fill-rule:evenodd;clip-rule:evenodd;fill:#9C2D42;}
	.st1{fill:none;stroke:#9C2D42;stroke-width:1.6915;stroke-miterlimit:3.8636;}
	.st2{fill:#E2A230;}
	.st3{fill-rule:evenodd;clip-rule:evenodd;fill:#E2A230;}
</style>
<path class="st0" d="M132.75,102.19h1.87v7.33c0,0.82,0.07,1.42,0.22,1.8c0.22,0.67,0.71,1,1.46,1c0.75,0,1.23-0.33,1.46-1
	c0.14-0.38,0.22-0.98,0.22-1.8v-7.33h1.87v7.33c0,1.27-0.15,2.25-0.44,2.96c-0.54,1.29-1.58,1.94-3.11,1.94
	c-1.53,0-2.57-0.65-3.11-1.94c-0.29-0.71-0.44-1.69-0.44-2.96V102.19z"/>
<polygon class="st0" points="141.89,102.19 143.82,102.19 147.33,110.51 147.33,102.19 149.05,102.19 149.05,114.11 147.21,114.11 
	143.61,105.64 143.61,114.11 141.89,114.11 "/>
<rect x="150.94" y="102.19" class="st0" width="1.83" height="11.93"/>
<polygon class="st0" points="159.96,102.19 161.88,102.19 158.87,114.11 157.12,114.11 154.14,102.19 156.11,102.19 158.03,111.24 
	"/>
<polygon class="st0" points="169.81,104.3 165.14,104.3 165.14,106.83 169.42,106.83 169.42,108.9 165.14,108.9 165.14,111.97 
	170.02,111.97 170.02,114.11 163.34,114.11 163.34,102.19 169.81,102.19 "/>
<path class="st0" d="M177.56,102.49c0.34,0.19,0.62,0.47,0.85,0.83c0.19,0.3,0.34,0.64,0.46,1c0.11,0.37,0.17,0.78,0.17,1.25
	c0,0.57-0.11,1.12-0.32,1.67c-0.21,0.54-0.56,0.93-1.05,1.16c0.41,0.22,0.7,0.54,0.86,0.95c0.17,0.41,0.26,1.03,0.26,1.86v0.8
	c0,0.54,0.02,0.91,0.05,1.11c0.05,0.31,0.16,0.53,0.34,0.68v0.3h-2.03c-0.06-0.26-0.1-0.48-0.12-0.64
	c-0.05-0.33-0.08-0.68-0.08-1.03l-0.01-1.11c-0.01-0.76-0.11-1.27-0.31-1.52c-0.19-0.25-0.56-0.38-1.11-0.38h-1.9v4.68h-1.8v-11.93
	h4.33C176.76,102.2,177.23,102.3,177.56,102.49z M173.61,104.26v3.2h2.09c0.42,0,0.73-0.06,0.93-0.19c0.37-0.23,0.55-0.67,0.55-1.34
	c0-0.72-0.18-1.21-0.53-1.46c-0.2-0.14-0.5-0.21-0.9-0.21H173.61z"/>
<path class="st0" d="M182.27,110.43c0.06,0.55,0.17,0.95,0.33,1.22c0.3,0.49,0.81,0.74,1.54,0.74c0.43,0,0.79-0.07,1.06-0.2
	c0.52-0.25,0.77-0.71,0.77-1.38c0-0.39-0.13-0.7-0.38-0.92c-0.25-0.21-0.66-0.4-1.2-0.56l-0.93-0.28c-0.92-0.28-1.55-0.58-1.91-0.92
	c-0.59-0.55-0.89-1.41-0.89-2.58c0-1.07,0.29-1.95,0.86-2.66c0.58-0.71,1.42-1.06,2.53-1.06c0.93,0,1.72,0.33,2.38,1
	c0.66,0.66,1,1.63,1.04,2.9h-1.77c-0.03-0.72-0.26-1.23-0.69-1.53c-0.29-0.2-0.65-0.3-1.07-0.3c-0.47,0-0.85,0.13-1.14,0.39
	c-0.28,0.26-0.42,0.62-0.42,1.08c0,0.43,0.14,0.75,0.42,0.96c0.18,0.14,0.56,0.31,1.15,0.49l1.52,0.49c0.67,0.21,1.17,0.5,1.51,0.87
	c0.53,0.56,0.79,1.37,0.79,2.44c0,1.09-0.31,2-0.93,2.72c-0.61,0.72-1.48,1.08-2.61,1.08c-1.15,0-2.05-0.35-2.71-1.06
	c-0.66-0.71-0.99-1.69-0.99-2.93H182.27z"/>
<rect x="189.28" y="102.19" class="st0" width="1.83" height="11.93"/>
<polygon class="st0" points="199.54,102.19 199.54,104.3 196.91,104.3 196.91,114.11 195.05,114.11 195.05,104.3 192.4,104.3 
	192.4,102.19 "/>
<rect x="200.79" y="102.19" class="st0" width="1.83" height="11.93"/>
<polygon class="st0" points="218.55,102.19 218.55,104.3 215.91,104.3 215.91,114.11 214.05,114.11 214.05,104.3 211.4,104.3 
	211.4,102.19 "/>
<polygon class="st0" points="226.46,104.3 221.79,104.3 221.79,106.83 226.08,106.83 226.08,108.9 221.79,108.9 221.79,111.97 
	226.68,111.97 226.68,114.11 219.99,114.11 219.99,102.19 226.46,102.19 "/>
<polygon class="st0" points="228.45,102.19 230.27,102.19 230.27,107.1 233.67,102.19 236.05,102.19 232.44,107.1 236.24,114.11 
	233.87,114.11 231.15,108.9 230.27,110.12 230.27,114.11 228.45,114.11 "/>
<polygon class="st0" points="237.55,102.19 239.49,102.19 243,110.51 243,102.19 244.72,102.19 244.72,114.11 242.88,114.11 
	239.27,105.64 239.27,114.11 237.55,114.11 "/>
<path class="st0" d="M253.54,113.05c-0.67,0.93-1.63,1.39-2.89,1.39s-2.23-0.46-2.89-1.39c-0.89-1.14-1.34-2.78-1.34-4.92
	c0-2.19,0.45-3.83,1.34-4.92c0.67-0.93,1.63-1.39,2.89-1.39s2.22,0.46,2.89,1.39c0.89,1.09,1.33,2.73,1.33,4.92
	C254.88,110.27,254.43,111.91,253.54,113.05z M252.39,111.24c0.43-0.73,0.65-1.76,0.65-3.11c0-1.34-0.22-2.37-0.65-3.1
	c-0.43-0.73-1-1.1-1.74-1.1s-1.31,0.36-1.75,1.09c-0.43,0.73-0.65,1.76-0.65,3.11c0,1.34,0.22,2.38,0.65,3.11
	c0.44,0.73,1.02,1.09,1.75,1.09S251.96,111.97,252.39,111.24z"/>
<polygon class="st0" points="256.59,102.19 258.44,102.19 258.44,111.97 262.81,111.97 262.81,114.11 256.59,114.11 "/>
<path class="st0" d="M271.19,113.05c-0.67,0.93-1.63,1.39-2.89,1.39c-1.26,0-2.23-0.46-2.89-1.39c-0.9-1.14-1.34-2.78-1.34-4.92
	c0-2.19,0.45-3.83,1.34-4.92c0.67-0.93,1.63-1.39,2.89-1.39c1.26,0,2.22,0.46,2.89,1.39c0.89,1.09,1.34,2.73,1.34,4.92
	C272.52,110.27,272.08,111.91,271.19,113.05z M270.03,111.24c0.43-0.73,0.65-1.76,0.65-3.11c0-1.34-0.22-2.37-0.65-3.1
	c-0.43-0.73-1-1.1-1.74-1.1c-0.73,0-1.31,0.36-1.75,1.09c-0.43,0.73-0.65,1.76-0.65,3.11c0,1.34,0.22,2.38,0.65,3.11
	c0.44,0.73,1.02,1.09,1.75,1.09C269.03,112.33,269.6,111.97,270.03,111.24z"/>
<path class="st0" d="M280.17,105.91c-0.14-0.81-0.48-1.38-1.02-1.71c-0.3-0.18-0.64-0.27-1.01-0.27c-0.71,0-1.3,0.36-1.76,1.09
	c-0.45,0.72-0.68,1.81-0.68,3.27c0,1.47,0.25,2.5,0.74,3.12c0.49,0.61,1.06,0.91,1.69,0.91c0.62,0,1.13-0.24,1.52-0.72
	c0.39-0.49,0.64-1.12,0.73-1.9h-2.04v-1.99h3.67v6.4h-1.22l-0.19-1.49c-0.36,0.57-0.67,0.97-0.96,1.2c-0.49,0.4-1.09,0.61-1.8,0.61
	c-1.17,0-2.13-0.55-2.87-1.64c-0.78-1.1-1.17-2.61-1.17-4.51c0-1.93,0.39-3.48,1.18-4.65c0.79-1.17,1.83-1.75,3.12-1.75
	c1.12,0,2.02,0.39,2.7,1.16c0.68,0.77,1.07,1.72,1.17,2.87H280.17z"/>
<rect x="283.94" y="102.19" class="st0" width="1.83" height="11.93"/>
<path class="st0" d="M301.14,102.19h2.65v11.93h-1.72v-8.07c0-0.23,0-0.56,0.01-0.97c0-0.42,0-0.74,0-0.97l-1.67,10.01h-1.79
	l-1.66-10.01c0,0.23,0,0.55,0,0.97c0,0.42,0.01,0.74,0.01,0.97v8.07h-1.72v-11.93h2.68l1.6,9.38L301.14,102.19z"/>
<path class="st0" d="M308.33,102.19h2.08l3.13,11.93h-2l-0.57-2.45h-3.25l-0.61,2.45h-1.93L308.33,102.19z M308.22,109.6h2.24
	l-1.1-4.69L308.22,109.6z"/>
<polygon class="st0" points="314.97,102.19 316.81,102.19 316.81,111.97 321.19,111.97 321.19,114.11 314.97,114.11 "/>
<path class="st0" d="M325.3,102.19h2.08l3.12,11.93h-2l-0.57-2.45h-3.25l-0.61,2.45h-1.93L325.3,102.19z M325.18,109.6h2.24
	l-1.1-4.69L325.18,109.6z"/>
<polygon class="st0" points="336.97,102.19 339.06,102.19 336.11,109.63 336.11,114.11 334.26,114.11 334.26,109.63 331.21,102.19 
	333.38,102.19 335.21,107.38 "/>
<path class="st0" d="M341.75,110.43c0.06,0.55,0.17,0.95,0.33,1.22c0.3,0.49,0.81,0.74,1.54,0.74c0.44,0,0.79-0.07,1.06-0.2
	c0.51-0.25,0.77-0.71,0.77-1.38c0-0.39-0.13-0.7-0.38-0.92c-0.26-0.21-0.66-0.4-1.2-0.56l-0.93-0.28c-0.92-0.28-1.55-0.58-1.9-0.92
	c-0.6-0.55-0.89-1.41-0.89-2.58c0-1.07,0.29-1.95,0.86-2.66c0.58-0.71,1.42-1.06,2.53-1.06c0.93,0,1.72,0.33,2.38,1
	c0.66,0.66,1,1.63,1.04,2.9h-1.77c-0.03-0.72-0.26-1.23-0.69-1.53c-0.29-0.2-0.64-0.3-1.07-0.3c-0.47,0-0.85,0.13-1.14,0.39
	c-0.28,0.26-0.42,0.62-0.42,1.08c0,0.43,0.14,0.75,0.42,0.96c0.18,0.14,0.56,0.31,1.15,0.49l1.52,0.49c0.67,0.21,1.17,0.5,1.51,0.87
	c0.53,0.56,0.79,1.37,0.79,2.44c0,1.09-0.31,2-0.93,2.72c-0.62,0.72-1.48,1.08-2.61,1.08c-1.15,0-2.05-0.35-2.71-1.06
	c-0.66-0.71-0.99-1.69-0.99-2.93H341.75z"/>
<rect x="348.76" y="102.19" class="st0" width="1.83" height="11.93"/>
<path class="st0" d="M355.15,102.19h2.08l3.12,11.93h-2l-0.57-2.45h-3.25l-0.61,2.45H352L355.15,102.19z M355.03,109.6h2.24
	l-1.1-4.69L355.03,109.6z"/>
<path class="st0" d="M358.36,93.07h-29.29v-3.79c1.06-0.03,2.41-0.16,4.06-0.37c1.68-0.21,2.83-0.52,3.46-0.91
	c0.96-0.67,1.67-1.44,2.1-2.29c0.47-0.89,0.7-1.99,0.7-3.31v-55.1h-0.7l-22.61,64.55h-2.33l-21.53-65.89h-0.61v45.22
	c0,4.38,0.23,7.71,0.7,9.98c0.5,2.28,1.25,3.92,2.24,4.91c0.69,0.75,2.1,1.46,4.25,2.14c2.15,0.68,3.55,1.03,4.2,1.07v3.79h-26.76
	v-3.79c1.4-0.14,2.86-0.41,4.39-0.8c1.56-0.39,2.75-0.98,3.6-1.76c1.09-1,1.84-2.53,2.24-4.59c0.41-2.06,0.61-5.51,0.61-10.36V33.01
	c0-2.24-0.23-4.07-0.7-5.5c-0.47-1.42-1.14-2.58-2.01-3.47c-0.97-0.96-2.15-1.67-3.55-2.14c-1.4-0.46-2.79-0.73-4.16-0.8v-3.79
	h22.61l18.96,56.81l16.21-47.52c0.59-1.74,1.09-3.56,1.5-5.45c0.44-1.92,0.67-3.2,0.7-3.84h21.63v3.79
	c-0.87,0.04-1.99,0.2-3.36,0.48c-1.34,0.28-2.32,0.55-2.94,0.8c-1.06,0.43-1.77,1.14-2.15,2.14c-0.37,1-0.56,2.08-0.56,3.26v54.62
	c0,1.25,0.19,2.3,0.56,3.15c0.38,0.85,1.09,1.6,2.15,2.24c0.56,0.36,1.56,0.7,2.99,1.02c1.43,0.28,2.57,0.45,3.41,0.48V93.07z"/>
<path class="st1" d="M358.36,93.07h-29.29v-3.79c1.06-0.03,2.41-0.16,4.06-0.37c1.68-0.21,2.83-0.52,3.46-0.91
	c0.96-0.67,1.67-1.44,2.1-2.29c0.47-0.89,0.7-1.99,0.7-3.31v-55.1h-0.7l-22.61,64.55h-2.33l-21.53-65.89h-0.61v45.22
	c0,4.38,0.23,7.71,0.7,9.98c0.5,2.28,1.25,3.92,2.24,4.91c0.69,0.75,2.1,1.46,4.25,2.14c2.15,0.68,3.55,1.03,4.2,1.07v3.79h-26.76
	v-3.79c1.4-0.14,2.86-0.41,4.39-0.8c1.56-0.39,2.75-0.98,3.6-1.76c1.09-1,1.84-2.53,2.24-4.59c0.41-2.06,0.61-5.51,0.61-10.36V33.01
	c0-2.24-0.23-4.07-0.7-5.5c-0.47-1.42-1.14-2.58-2.01-3.47c-0.97-0.96-2.15-1.67-3.55-2.14c-1.4-0.46-2.79-0.73-4.16-0.8v-3.79
	h22.61l18.96,56.81l16.21-47.52c0.59-1.74,1.09-3.56,1.5-5.45c0.44-1.92,0.67-3.2,0.7-3.84h21.63v3.79
	c-0.87,0.04-1.99,0.2-3.36,0.48c-1.34,0.28-2.32,0.55-2.94,0.8c-1.06,0.43-1.77,1.14-2.15,2.14c-0.37,1-0.56,2.08-0.56,3.26v54.62
	c0,1.25,0.19,2.3,0.56,3.15c0.38,0.85,1.09,1.6,2.15,2.24c0.56,0.36,1.56,0.7,2.99,1.02c1.43,0.28,2.57,0.45,3.41,0.48V93.07z"/>
<path class="st0" d="M202.5,21.1c-0.87,0.04-2.15,0.25-3.83,0.64c-1.68,0.39-3.05,0.98-4.11,1.76c-1.06,0.82-1.79,2.51-2.2,5.07
	c-0.4,2.56-0.61,5.69-0.61,9.4v32.94c0,4.2-0.76,7.85-2.29,10.95c-1.53,3.1-3.54,5.64-6.03,7.63c-2.46,1.92-5.06,3.29-7.8,4.11
	c-2.71,0.85-5.31,1.28-7.8,1.28c-3.99,0-7.54-0.61-10.65-1.82c-3.12-1.17-5.73-2.78-7.85-4.8c-2.09-2.03-3.66-4.34-4.72-6.94
	c-1.06-2.63-1.59-5.37-1.59-8.22V28.31c0-1.24-0.19-2.28-0.56-3.1c-0.34-0.85-1.06-1.64-2.15-2.35c-0.78-0.5-1.77-0.89-2.99-1.17
	c-1.21-0.32-2.21-0.52-2.99-0.59v-3.79h27.6v3.79c-0.87,0.04-1.98,0.2-3.32,0.48c-1.31,0.28-2.27,0.55-2.9,0.8
	c-1.06,0.43-1.77,1.14-2.15,2.14c-0.34,1-0.51,2.08-0.51,3.26v41.86c0,2.03,0.19,4.16,0.56,6.41c0.4,2.21,1.18,4.27,2.34,6.19
	c1.21,1.96,2.86,3.56,4.95,4.8c2.08,1.25,4.95,1.87,8.59,1.87c3.42,0,6.29-0.62,8.59-1.87c2.34-1.24,4.17-2.88,5.51-4.91
	c1.27-1.92,2.18-3.93,2.71-6.03c0.53-2.1,0.79-4.22,0.79-6.35V38.67c0-3.95-0.25-7.17-0.75-9.66c-0.5-2.53-1.23-4.18-2.2-4.97
	c-1.09-0.89-2.59-1.58-4.48-2.08c-1.87-0.5-3.3-0.78-4.3-0.85v-3.79h27.09V21.1z"/>
<path class="st1" d="M202.5,21.1c-0.87,0.04-2.15,0.25-3.83,0.64c-1.68,0.39-3.05,0.98-4.11,1.76c-1.06,0.82-1.79,2.51-2.2,5.07
	c-0.4,2.56-0.61,5.69-0.61,9.4v32.94c0,4.2-0.76,7.85-2.29,10.95c-1.53,3.1-3.54,5.64-6.03,7.63c-2.46,1.92-5.06,3.29-7.8,4.11
	c-2.71,0.85-5.31,1.28-7.8,1.28c-3.99,0-7.54-0.61-10.65-1.82c-3.12-1.17-5.73-2.78-7.85-4.8c-2.09-2.03-3.66-4.34-4.72-6.94
	c-1.06-2.63-1.59-5.37-1.59-8.22V28.31c0-1.24-0.19-2.28-0.56-3.1c-0.34-0.85-1.06-1.64-2.15-2.35c-0.78-0.5-1.77-0.89-2.99-1.17
	c-1.21-0.32-2.21-0.52-2.99-0.59v-3.79h27.6v3.79c-0.87,0.04-1.98,0.2-3.32,0.48c-1.31,0.28-2.27,0.55-2.9,0.8
	c-1.06,0.43-1.77,1.14-2.15,2.14c-0.34,1-0.51,2.08-0.51,3.26v41.86c0,2.03,0.19,4.16,0.56,6.41c0.4,2.21,1.18,4.27,2.34,6.19
	c1.21,1.96,2.86,3.56,4.95,4.8c2.08,1.25,4.95,1.87,8.59,1.87c3.42,0,6.29-0.62,8.59-1.87c2.34-1.24,4.17-2.88,5.51-4.91
	c1.27-1.92,2.18-3.93,2.71-6.03c0.53-2.1,0.79-4.22,0.79-6.35V38.67c0-3.95-0.25-7.17-0.75-9.66c-0.5-2.53-1.23-4.18-2.2-4.97
	c-1.09-0.89-2.59-1.58-4.48-2.08c-1.87-0.5-3.3-0.78-4.3-0.85v-3.79h27.09V21.1z"/>
<path class="st0" d="M268.2,37.87h-3.22c-0.28-1.28-0.79-2.79-1.54-4.54c-0.72-1.78-1.53-3.45-2.43-5.02
	c-0.93-1.64-1.96-3.06-3.08-4.27c-1.09-1.24-2.15-1.96-3.18-2.14c-0.97-0.14-2.18-0.25-3.64-0.32c-1.46-0.07-2.82-0.1-4.06-0.11
	h-2.71v60.6c0,1.17,0.22,2.26,0.65,3.26c0.43,0.96,1.2,1.71,2.29,2.24c0.56,0.25,1.73,0.59,3.5,1.02c1.8,0.43,3.21,0.66,4.2,0.69
	v3.79h-31.3v-3.79c0.87-0.07,2.2-0.21,3.97-0.43c1.81-0.21,3.05-0.48,3.74-0.8c1.03-0.46,1.77-1.12,2.24-1.98
	c0.5-0.89,0.75-2.06,0.75-3.52V21.48h-2.71c-0.97,0-2.16,0.04-3.6,0.11c-1.43,0.04-2.8,0.14-4.11,0.32
	c-1.03,0.14-2.1,0.85-3.22,2.14c-1.09,1.25-2.1,2.67-3.04,4.27c-0.93,1.6-1.76,3.31-2.48,5.13c-0.71,1.78-1.21,3.26-1.49,4.43h-3.27
	V17.31h57.73V37.87z"/>
<path class="st1" d="M268.2,37.87h-3.22c-0.28-1.28-0.79-2.79-1.54-4.54c-0.72-1.78-1.53-3.45-2.43-5.02
	c-0.93-1.64-1.96-3.06-3.08-4.27c-1.09-1.24-2.15-1.96-3.18-2.14c-0.97-0.14-2.18-0.25-3.64-0.32c-1.46-0.07-2.82-0.1-4.06-0.11
	h-2.71v60.6c0,1.17,0.22,2.26,0.65,3.26c0.43,0.96,1.2,1.71,2.29,2.24c0.56,0.25,1.73,0.59,3.5,1.02c1.8,0.43,3.21,0.66,4.2,0.69
	v3.79h-31.3v-3.79c0.87-0.07,2.2-0.21,3.97-0.43c1.81-0.21,3.05-0.48,3.74-0.8c1.03-0.46,1.77-1.12,2.24-1.98
	c0.5-0.89,0.75-2.06,0.75-3.52V21.48h-2.71c-0.97,0-2.16,0.04-3.6,0.11c-1.43,0.04-2.8,0.14-4.11,0.32
	c-1.03,0.14-2.1,0.85-3.22,2.14c-1.09,1.25-2.1,2.67-3.04,4.27c-0.93,1.6-1.76,3.31-2.48,5.13c-0.71,1.78-1.21,3.26-1.49,4.43h-3.27
	V17.31h57.73V37.87z"/>
<path class="st0" d="M0,63.87C0,31.02,26.93,4.02,60.03,4.21c31.92,0.18,59.85,27.54,59.85,59.67c0,32.85-27.93,60.47-60.03,60.12
	C27.57,123.64,0,96.73,0,63.87z"/>
<path class="st2" d="M3.91,63.42c0-1.67,1.38-3.02,3.08-3.02c1.7,0,3.08,1.35,3.08,3.02c0,1.67-1.38,3.02-3.08,3.02
	C5.29,66.45,3.91,65.09,3.91,63.42z"/>
<path class="st2" d="M110,63.8c0-1.67,1.38-3.02,3.08-3.02c1.7,0,3.08,1.35,3.08,3.02c0,1.67-1.38,3.02-3.08,3.02
	C111.38,66.82,110,65.47,110,63.8z"/>
<path class="st3" d="M36.27,26.39c0,0,19.6,0,20.92,0c1.76,0,3.09,1.27,3.09,2.97c0,1.7,0,14.69,0,14.69s-0.44-1.27-2.43-1.27
	c-1.99,0-17.69,0-18.46,0c-0.77,0-3.12-1.28-3.12-2.55C36.27,38.95,36.27,26.39,36.27,26.39z"/>
<path class="st3" d="M84.99,26.39c0,0-19.6,0-20.92,0c-1.77,0-3.09,1.27-3.09,2.97c0,1.7,0,14.69,0,14.69s0.44-1.27,2.43-1.27
	c1.99,0,17.69,0,18.46,0c0.77,0,3.12-1.28,3.12-2.55C84.99,38.95,84.99,26.39,84.99,26.39z"/>
<path class="st3" d="M29.17,69.57c0-16.1,12.65-29.24,28.57-30.07v8.11C46.26,48.47,37.2,58.01,37.2,69.66
	c0,12.21,9.95,22.11,22.22,22.11c12.27,0,22.22-9.9,22.22-22.11c0-11.58-8.95-21.09-20.35-22.03v-8.1
	c15.74,1.01,28.2,14.07,28.2,30.05c0,16.63-13.5,30.11-30.16,30.11C42.67,99.68,29.17,86.2,29.17,69.57z"/>
<path class="st3" d="M41.92,69.07c0-9.52,7.38-17.33,16.81-18.17v8.05c-5.08,0.78-8.96,5.01-8.96,10.12
	c0,5.66,4.77,10.25,10.64,10.25c5.88,0,10.64-4.59,10.64-10.25c0-5.04-3.79-9.24-8.78-10.09v-8.06c9.33,0.92,16.62,8.7,16.62,18.15
	c0,10.08-8.28,18.24-18.49,18.24C50.2,87.31,41.92,79.14,41.92,69.07z"/>
<path class="st3" d="M9.85,69.59l0.22,1.38L6.08,71.6c-0.45,0.07-0.76,0.17-0.95,0.31c-0.34,0.22-0.46,0.61-0.38,1.16
	c0.09,0.55,0.33,0.88,0.72,0.98c0.22,0.07,0.56,0.07,1,0l3.99-0.63l0.22,1.38l-3.99,0.63c-0.69,0.11-1.25,0.09-1.66-0.07
	c-0.77-0.29-1.24-0.99-1.42-2.12c-0.18-1.12,0.05-1.94,0.69-2.45c0.35-0.28,0.87-0.47,1.56-0.58L9.85,69.59z"/>
<polygon class="st3" points="10.88,75.64 11.28,77.02 7.59,80.79 12,79.53 12.35,80.76 6.03,82.57 5.65,81.25 9.4,77.39 4.92,78.67 
	4.56,77.44 "/>
<rect x="6.72" y="82.63" transform="matrix(0.9271 -0.3748 0.3748 0.9271 -30.4915 9.822)" class="st3" width="6.57" height="1.36"/>
<polygon class="st3" points="15.4,87.02 16.04,88.29 9.17,89.27 8.58,88.12 13.43,83.16 14.09,84.47 10.3,88 "/>
<polygon class="st3" points="17.94,93.21 16,90.33 14.84,91.11 16.63,93.75 15.68,94.39 13.9,91.75 12.49,92.69 14.53,95.7 
	13.55,96.36 10.76,92.24 16.21,88.57 18.91,92.56 "/>
<path class="st3" d="M22.02,96.69c0.08,0.26,0.1,0.52,0.06,0.78c-0.04,0.22-0.1,0.42-0.2,0.61c-0.1,0.19-0.25,0.37-0.45,0.54
	c-0.24,0.2-0.53,0.34-0.86,0.41c-0.33,0.07-0.66,0.01-0.99-0.19c0.1,0.31,0.11,0.58,0.01,0.83c-0.09,0.24-0.31,0.51-0.66,0.8
	l-0.34,0.28c-0.23,0.19-0.38,0.33-0.44,0.42c-0.11,0.14-0.15,0.28-0.13,0.43l-0.13,0.1l-0.97-1.16c0.09-0.13,0.16-0.22,0.21-0.29
	c0.12-0.15,0.25-0.28,0.4-0.41l0.46-0.4c0.32-0.27,0.48-0.51,0.49-0.72c0.01-0.2-0.11-0.46-0.37-0.77l-0.91-1.08l-1.97,1.65
	l-0.86-1.03l5.03-4.22l2.07,2.47C21.76,96.12,21.94,96.43,22.02,96.69z M19.39,95.06l-1.35,1.13l1,1.19
	c0.2,0.24,0.38,0.39,0.53,0.46c0.27,0.13,0.55,0.07,0.83-0.16c0.31-0.26,0.42-0.53,0.36-0.82c-0.04-0.16-0.15-0.36-0.34-0.59
	L19.39,95.06z"/>
<path class="st3" d="M21.02,101.93c-0.17,0.25-0.27,0.47-0.28,0.66c-0.02,0.35,0.17,0.71,0.56,1.08c0.24,0.22,0.45,0.37,0.65,0.46
	c0.37,0.16,0.69,0.11,0.94-0.17c0.15-0.16,0.19-0.35,0.13-0.56c-0.06-0.21-0.21-0.49-0.45-0.83l-0.4-0.59
	c-0.39-0.58-0.63-1.02-0.69-1.33c-0.12-0.52,0.04-1.02,0.48-1.49c0.4-0.43,0.89-0.64,1.47-0.63c0.58,0.01,1.17,0.29,1.78,0.86
	c0.51,0.47,0.81,1.01,0.92,1.61c0.11,0.6-0.07,1.17-0.52,1.69l-0.97-0.9c0.25-0.3,0.32-0.63,0.2-0.97
	c-0.08-0.23-0.24-0.45-0.47-0.66c-0.26-0.24-0.51-0.38-0.77-0.42c-0.25-0.04-0.47,0.03-0.64,0.22c-0.16,0.17-0.2,0.37-0.13,0.6
	c0.05,0.15,0.19,0.41,0.44,0.78l0.64,0.97c0.28,0.42,0.45,0.8,0.5,1.11c0.08,0.49-0.09,0.95-0.48,1.38
	c-0.41,0.44-0.92,0.65-1.53,0.62c-0.6-0.02-1.21-0.32-1.83-0.89c-0.63-0.58-0.99-1.18-1.08-1.8c-0.09-0.62,0.1-1.18,0.56-1.68
	L21.02,101.93z"/>
<polygon class="st3" points="24.51,107.83 23.46,106.95 27.69,101.92 28.73,102.8 "/>
<polygon class="st3" points="33.39,106.1 32.72,107.05 31.11,105.92 28.01,110.35 26.87,109.55 29.98,105.13 28.36,104 
	29.02,103.04 "/>
<polygon class="st3" points="31.59,112.59 30.42,111.89 33.8,106.27 34.97,106.97 "/>
<polygon class="st3" points="42.3,110.62 41.81,111.67 40.03,110.84 37.74,115.74 36.49,115.15 38.77,110.26 36.98,109.42 
	37.47,108.37 "/>
<polygon class="st3" points="46.93,113.32 43.63,112.25 43.19,113.57 46.23,114.56 45.88,115.64 42.84,114.66 42.32,116.26 
	45.78,117.39 45.42,118.51 40.68,116.97 42.71,110.73 47.29,112.22 "/>
<polygon class="st3" points="48.07,112.4 49.39,112.66 48.88,115.31 51.89,113.14 53.63,113.48 50.47,115.62 52.51,119.95 
	50.78,119.61 49.33,116.41 48.56,116.94 48.14,119.1 46.81,118.84 "/>
<polygon class="st3" points="54.07,113.5 55.5,113.6 57.79,118.35 58.11,113.78 59.39,113.87 58.93,120.42 57.56,120.32 
	55.21,115.49 54.88,120.14 53.61,120.05 "/>
<path class="st3" d="M65.61,119.43c-0.45,0.55-1.14,0.87-2.08,0.95c-0.94,0.08-1.67-0.11-2.21-0.58c-0.72-0.57-1.13-1.44-1.23-2.61
	c-0.1-1.2,0.15-2.13,0.76-2.79c0.45-0.55,1.14-0.87,2.08-0.95c0.94-0.08,1.67,0.11,2.21,0.58c0.71,0.54,1.12,1.41,1.23,2.61
	C66.46,117.82,66.21,118.74,65.61,119.43z M64.66,118.51c0.28-0.43,0.39-1.01,0.33-1.75c-0.06-0.73-0.27-1.29-0.63-1.66
	c-0.35-0.37-0.8-0.54-1.34-0.49c-0.54,0.05-0.96,0.28-1.24,0.71c-0.29,0.43-0.4,1.01-0.34,1.75c0.06,0.74,0.28,1.29,0.63,1.66
	c0.36,0.37,0.81,0.53,1.35,0.49C63.97,119.17,64.38,118.93,64.66,118.51z"/>
<polygon class="st3" points="66.75,113.28 68.1,113.01 69.12,118.3 72.32,117.68 72.54,118.84 68,119.72 "/>
<path class="st3" d="M78.45,116.24c-0.3,0.64-0.9,1.12-1.79,1.42c-0.89,0.31-1.65,0.3-2.29-0.02c-0.83-0.38-1.44-1.12-1.83-2.24
	c-0.39-1.14-0.37-2.1,0.06-2.88c0.3-0.65,0.9-1.12,1.79-1.42c0.89-0.31,1.65-0.3,2.29,0.02c0.82,0.35,1.43,1.1,1.82,2.24
	C78.9,114.47,78.88,115.43,78.45,116.24z M77.32,115.58c0.17-0.48,0.14-1.07-0.1-1.77c-0.24-0.69-0.58-1.18-1.01-1.46
	c-0.43-0.28-0.91-0.33-1.42-0.15c-0.51,0.18-0.86,0.51-1.04,0.99c-0.18,0.48-0.14,1.08,0.1,1.77c0.24,0.7,0.58,1.18,1.02,1.46
	c0.44,0.27,0.91,0.32,1.43,0.14C76.8,116.39,77.15,116.06,77.32,115.58z"/>
<path class="st3" d="M82.87,109.96c-0.29-0.36-0.66-0.53-1.1-0.51c-0.25,0.01-0.49,0.08-0.74,0.2c-0.48,0.23-0.78,0.6-0.91,1.11
	c-0.13,0.51-0.02,1.12,0.33,1.84c0.35,0.73,0.77,1.16,1.25,1.3c0.48,0.14,0.93,0.11,1.35-0.1c0.41-0.2,0.7-0.49,0.84-0.85
	c0.15-0.37,0.16-0.76,0.03-1.18l-1.37,0.67l-0.48-0.98l2.46-1.2l1.55,3.17l-0.82,0.4l-0.48-0.68c-0.1,0.4-0.22,0.7-0.35,0.91
	c-0.23,0.36-0.58,0.65-1.06,0.88c-0.78,0.38-1.56,0.42-2.32,0.13c-0.79-0.29-1.41-0.91-1.87-1.85c-0.47-0.95-0.58-1.85-0.33-2.68
	c0.25-0.83,0.8-1.46,1.67-1.88c0.75-0.37,1.45-0.47,2.09-0.31c0.64,0.16,1.13,0.5,1.48,1.04L82.87,109.96z"/>
<polygon class="st3" points="88.47,111.85 87.3,112.55 83.91,106.93 85.08,106.22 "/>
<path class="st3" d="M91.28,101.71l1.53-1.24l4.14,5.1l-1,0.8l-2.8-3.45c-0.08-0.1-0.19-0.24-0.33-0.42
	c-0.14-0.18-0.25-0.32-0.33-0.42l2.5,5.06l-1.04,0.84l-4.43-3.5c0.08,0.1,0.19,0.23,0.34,0.41c0.15,0.18,0.26,0.31,0.34,0.41
	l2.8,3.45l-0.99,0.8l-4.14-5.1l1.55-1.26l4.18,3.26L91.28,101.71z"/>
<path class="st3" d="M94.69,98.5l1.08-1.12l6.35,2.89l-1.04,1.07l-1.27-0.63l-1.68,1.74l0.66,1.26l-1,1.03L94.69,98.5z
	 M97.58,101.39l1.16-1.2l-2.43-1.2L97.58,101.39z"/>
<polygon class="st3" points="97.64,95.38 98.48,94.3 102.73,97.61 104.74,95.05 105.67,95.78 102.82,99.42 "/>
<path class="st3" d="M101.75,89.69l0.82-1.31l6.81,1.51l-0.79,1.26l-1.37-0.36l-1.28,2.05l0.91,1.1l-0.76,1.22L101.75,89.69z
	 M105.17,91.92l0.88-1.41l-2.63-0.67L105.17,91.92z"/>
<polygon class="st3" points="105.19,83.39 105.85,81.98 108.64,85.7 110.88,86.74 110.3,87.98 108.06,86.94 103.38,87.27 
	104.06,85.8 107.23,85.78 "/>
<path class="st3" d="M110.64,82.15c0.3,0.06,0.54,0.05,0.72-0.01c0.33-0.12,0.58-0.44,0.76-0.95c0.1-0.3,0.16-0.57,0.15-0.78
	c0-0.41-0.18-0.67-0.53-0.79c-0.21-0.07-0.4-0.03-0.57,0.11c-0.17,0.14-0.37,0.39-0.58,0.75l-0.37,0.61
	c-0.37,0.59-0.68,0.99-0.94,1.17c-0.43,0.32-0.95,0.37-1.56,0.16c-0.56-0.19-0.95-0.55-1.18-1.08c-0.23-0.53-0.21-1.19,0.06-1.97
	c0.23-0.65,0.59-1.15,1.1-1.49c0.51-0.34,1.09-0.41,1.76-0.21l-0.43,1.25c-0.38-0.11-0.7-0.04-0.97,0.21
	c-0.17,0.17-0.31,0.4-0.42,0.7c-0.12,0.34-0.14,0.62-0.07,0.87c0.07,0.25,0.22,0.41,0.46,0.5c0.22,0.08,0.42,0.03,0.6-0.12
	c0.12-0.1,0.3-0.34,0.54-0.72l0.63-0.98c0.27-0.43,0.55-0.73,0.82-0.91c0.42-0.27,0.91-0.31,1.46-0.12
	c0.57,0.19,0.96,0.57,1.19,1.14c0.22,0.56,0.2,1.24-0.07,2.03c-0.28,0.81-0.68,1.38-1.21,1.72c-0.53,0.34-1.12,0.39-1.77,0.17
	L110.64,82.15z"/>
<rect x="110.45" y="73.09" transform="matrix(0.2248 -0.9744 0.9744 0.2248 11.7187 167.4857)" class="st3" width="1.36" height="6.57"/>
<path class="st3" d="M108.58,72.26l0.19-1.54l6.81-1.51l-0.18,1.48L114,70.94l-0.3,2.4l1.29,0.62l-0.17,1.42L108.58,72.26z
	 M112.63,72.84l0.2-1.65l-2.67,0.5L112.63,72.84z"/>
<polygon class="st3" points="3.35,56.25 3.6,54.92 6.25,55.44 4.09,52.43 4.42,50.69 6.55,53.85 10.87,51.81 10.53,53.54 
	7.34,54.99 7.88,55.76 10.02,56.18 9.77,57.51 "/>
<polygon class="st3" points="7.46,45.11 6.34,48.4 7.65,48.86 8.68,45.83 9.76,46.21 8.72,49.23 10.31,49.78 11.49,46.33 
	12.6,46.72 10.99,51.43 4.81,49.29 6.37,44.73 "/>
<path class="st3" d="M8.87,39.37c0.2-0.18,0.43-0.31,0.68-0.38c0.21-0.06,0.42-0.08,0.64-0.07c0.22,0.01,0.44,0.07,0.68,0.18
	c0.28,0.13,0.53,0.33,0.73,0.6c0.21,0.27,0.29,0.6,0.25,0.98c0.24-0.22,0.48-0.34,0.74-0.36c0.26-0.02,0.59,0.06,1.01,0.26l0.4,0.19
	c0.27,0.13,0.46,0.2,0.57,0.23c0.17,0.04,0.32,0.02,0.44-0.07l0.15,0.07l-0.64,1.37c-0.15-0.02-0.27-0.05-0.36-0.07
	c-0.18-0.05-0.36-0.11-0.53-0.19l-0.56-0.25c-0.38-0.17-0.66-0.22-0.85-0.14c-0.19,0.07-0.37,0.29-0.54,0.66l-0.6,1.29l2.32,1.09
	l-0.56,1.22l-5.93-2.78l1.36-2.93C8.47,39.85,8.67,39.55,8.87,39.37z M8.5,42.45l1.59,0.75l0.65-1.41c0.13-0.28,0.19-0.5,0.2-0.68
	c0-0.3-0.16-0.53-0.5-0.68c-0.36-0.17-0.66-0.16-0.89,0.02C9.43,40.55,9.3,40.74,9.18,41L8.5,42.45z"/>
<path class="st3" d="M11.01,35.24l0.84-1.3l6.75,1.63l-0.81,1.25l-1.36-0.38l-1.31,2.03L16,39.58l-0.78,1.21L11.01,35.24z
	 M14.37,37.54l0.9-1.4l-2.6-0.72L14.37,37.54z"/>
<polygon class="st3" points="13.8,31.03 14.71,29.91 19.89,30.77 16.34,27.88 17.15,26.88 22.23,31.02 21.37,32.09 16.08,31.24 
	19.69,34.18 18.89,35.17 "/>
<path class="st3" d="M19.79,24.33l1.13-1.06l6.15,3.22l-1.08,1.02l-1.22-0.7l-1.76,1.65l0.59,1.3l-1.04,0.98L19.79,24.33z
	 M22.51,27.38l1.21-1.14l-2.35-1.33L22.51,27.38z"/>
<polygon class="st3" points="29.28,16.77 29.92,17.74 28.3,18.84 31.31,23.33 30.17,24.1 27.16,19.61 25.53,20.72 24.88,19.75 "/>
<path class="st3" d="M30.33,16.08l1.23-0.66l1.89,3.57c0.21,0.4,0.41,0.67,0.6,0.8c0.32,0.25,0.72,0.24,1.21-0.02
	c0.49-0.26,0.72-0.59,0.69-1c0-0.23-0.11-0.55-0.32-0.95l-1.89-3.57l1.23-0.66l1.89,3.57c0.33,0.62,0.48,1.15,0.48,1.59
	c-0.02,0.82-0.53,1.5-1.53,2.03c-1,0.54-1.85,0.58-2.54,0.14c-0.37-0.24-0.72-0.67-1.05-1.29L30.33,16.08z"/>
<polygon class="st3" points="38.93,18.99 36.48,12.89 37.73,12.38 38.67,14.7 41.04,13.74 40.1,11.41 41.36,10.9 43.81,17 
	42.55,17.51 41.46,14.79 39.09,15.75 40.18,18.48 "/>
<path class="st3" d="M44.87,9.98l1.5-0.38l3.83,5.82l-1.44,0.36l-0.73-1.21l-2.34,0.59l-0.11,1.42l-1.39,0.35L44.87,9.98z
	 M45.77,13.97l1.61-0.4l-1.42-2.31L45.77,13.97z"/>
<polygon class="st3" points="49.86,8.83 51.28,8.65 54.42,12.89 53.87,8.33 55.13,8.18 55.93,14.7 54.57,14.87 51.35,10.56 
	51.92,15.2 50.66,15.35 "/>
<path class="st3" d="M59.63,8.01l1.38,0.1l-0.28,4.03c-0.03,0.45,0,0.78,0.09,1c0.14,0.38,0.49,0.59,1.04,0.63
	c0.55,0.04,0.92-0.12,1.11-0.48c0.12-0.2,0.2-0.53,0.23-0.98l0.28-4.03l1.38,0.1l-0.28,4.03c-0.05,0.7-0.19,1.23-0.44,1.61
	c-0.45,0.68-1.24,0.98-2.37,0.91c-1.13-0.08-1.87-0.49-2.23-1.23c-0.19-0.4-0.26-0.96-0.21-1.65L59.63,8.01z"/>
<polygon class="st3" points="66.6,8.55 68.01,8.83 69.69,13.84 70.56,9.33 71.81,9.57 70.56,16.03 69.22,15.77 67.49,10.67 
	66.6,15.25 65.35,15.01 "/>
<polygon class="st3" points="78,11.54 77.64,12.64 75.78,12.03 74.12,17.18 72.81,16.75 74.47,11.61 72.6,10.99 72.96,9.89 "/>
<path class="st3" d="M79.14,11.93l1.26,0.59l-1.7,3.66c-0.19,0.41-0.28,0.73-0.27,0.96c0,0.4,0.24,0.73,0.75,0.96
	c0.5,0.24,0.9,0.22,1.21-0.04c0.18-0.14,0.37-0.42,0.56-0.83l1.7-3.66l1.26,0.59l-1.7,3.66c-0.29,0.63-0.62,1.08-0.98,1.34
	c-0.67,0.48-1.51,0.47-2.54-0.01c-1.03-0.48-1.57-1.13-1.64-1.95c-0.03-0.45,0.1-0.98,0.39-1.62L79.14,11.93z"/>
<polygon class="st3" points="85.42,14.97 86.58,15.66 85.19,17.99 88.74,16.97 90.25,17.89 86.57,18.82 87,23.6 85.5,22.69 
	85.24,19.18 84.34,19.42 83.21,21.3 82.06,20.61 "/>
<path class="st3" d="M96.79,23.22l1.48,1.3l-4.29,4.96l-0.96-0.84l2.9-3.36c0.08-0.1,0.2-0.23,0.35-0.4
	c0.15-0.17,0.27-0.31,0.35-0.4l-4.54,3.35l-1-0.88l2.67-4.98c-0.08,0.1-0.2,0.23-0.35,0.41c-0.15,0.17-0.26,0.31-0.35,0.41
	l-2.9,3.36l-0.96-0.84l4.29-4.96l1.5,1.31l-2.48,4.69L96.79,23.22z"/>
<path class="st3" d="M100.71,27.22l1.01,1.17l-3.42,6.07l-0.97-1.12l0.74-1.21l-1.58-1.83l-1.31,0.54l-0.94-1.08L100.71,27.22z
	 M97.58,29.84l1.09,1.26l1.41-2.32L97.58,29.84z"/>
<polygon class="st3" points="103.98,31.09 104.8,32.27 102.55,37.05 106.29,34.42 107.02,35.47 101.67,39.24 100.88,38.12 
	103.16,33.24 99.35,35.92 98.62,34.87 "/>
<path class="st3" d="M107.83,36.88l0.67,1.22l-3.52,1.96c-0.39,0.22-0.65,0.43-0.78,0.62c-0.24,0.33-0.23,0.73,0.04,1.22
	c0.27,0.49,0.6,0.71,1,0.68c0.23-0.01,0.55-0.12,0.94-0.34l3.51-1.96l0.67,1.22l-3.51,1.96c-0.61,0.34-1.13,0.51-1.58,0.51
	c-0.82-0.01-1.5-0.51-2.05-1.5c-0.55-1-0.61-1.85-0.19-2.55c0.23-0.38,0.66-0.74,1.26-1.08L107.83,36.88z"/>
<path class="st3" d="M107.25,45.75c-0.26,0.15-0.44,0.31-0.53,0.48c-0.17,0.31-0.15,0.71,0.05,1.21c0.12,0.3,0.25,0.53,0.39,0.69
	c0.27,0.31,0.58,0.39,0.92,0.25c0.2-0.08,0.32-0.23,0.36-0.45c0.04-0.22,0.02-0.54-0.05-0.95l-0.12-0.7
	c-0.11-0.69-0.13-1.2-0.06-1.5c0.12-0.53,0.47-0.91,1.07-1.15c0.54-0.22,1.07-0.21,1.59,0.05c0.52,0.25,0.93,0.76,1.24,1.53
	c0.26,0.64,0.31,1.26,0.15,1.85c-0.15,0.59-0.55,1.03-1.18,1.31l-0.49-1.22c0.36-0.17,0.55-0.44,0.58-0.8
	c0.02-0.24-0.03-0.51-0.15-0.8c-0.13-0.33-0.3-0.56-0.51-0.71c-0.21-0.14-0.43-0.17-0.67-0.07c-0.22,0.09-0.34,0.25-0.37,0.49
	c-0.02,0.15,0,0.45,0.07,0.9l0.17,1.15c0.07,0.5,0.07,0.91-0.02,1.22c-0.14,0.48-0.48,0.83-1.02,1.05c-0.55,0.23-1.1,0.2-1.64-0.08
	c-0.54-0.28-0.96-0.8-1.27-1.58c-0.32-0.79-0.39-1.49-0.21-2.09c0.18-0.6,0.58-1.03,1.21-1.29L107.25,45.75z"/>
<polygon class="st3" points="107.45,52.18 107.05,50.88 113.31,48.96 113.7,50.26 "/>
<path class="st3" d="M114.53,53.53l0.35,1.51l-5.85,3.75l-0.33-1.45l1.22-0.72l-0.54-2.36l-1.41-0.14l-0.32-1.4L114.53,53.53z
	 M110.55,54.37l0.37,1.63l2.32-1.38L110.55,54.37z"/>
</svg>
